<?xml version="1.0" encoding="UTF-8" standalone="no"?>
<!-- Generator: Adobe Illustrator 16.0.0, SVG Export Plug-In . SVG Version: 6.00 Build 0)  -->
<!DOCTYPE svg  PUBLIC '-//W3C//DTD SVG 1.1//EN'  'http://www.w3.org/Graphics/SVG/1.1/DTD/svg11.dtd'>
<svg id="Layer_1" xmlns="http://www.w3.org/2000/svg" xml:space="preserve" height="20px" viewBox="0 0 20 20" width="20px" version="1.1" y="0px" x="0px" xmlns:xlink="http://www.w3.org/1999/xlink" enable-background="new 0 0 20 20">
	<g fill="#333">
		<path d="m9.78 15.755h-3.391c-0.921 0-1.669-0.75-1.669-1.669v-8.171c0-0.921 0.751-1.67 1.669-1.67h3.446c0.207 0 0.372-0.165 0.372-0.372 0-0.208-0.166-0.373-0.372-0.373h-3.446c-1.332 0-2.413 1.084-2.413 2.415v8.171c0 1.333 1.084 2.415 2.413 2.415h3.391c0.206 0 0.372-0.166 0.372-0.373s-0.168-0.373-0.372-0.373z"/>
		<path d="m15.915 9.738l-2.367-2.366c-0.147-0.147-0.38-0.147-0.527 0-0.146 0.145-0.146 0.379 0 0.526l1.732 1.732h-7.556c-0.207 0-0.372 0.166-0.372 0.372s0.166 0.372 0.372 0.372h7.557l-1.732 1.732c-0.146 0.146-0.146 0.382 0 0.528 0.072 0.071 0.168 0.11 0.263 0.11 0.093 0 0.189-0.036 0.261-0.11l2.367-2.367c0.148-0.148 0.148-0.386 0.002-0.529z"/>
	</g>
</svg>
