<?xml version="1.0" encoding="utf-8"?>
<!-- Generator: Adobe Illustrator 16.0.0, SVG Export Plug-In . SVG Version: 6.00 Build 0)  -->
<!DOCTYPE svg PUBLIC "-//W3C//DTD SVG 1.1//EN" "http://www.w3.org/Graphics/SVG/1.1/DTD/svg11.dtd">
<svg version="1.1" id="Layer_1" xmlns="http://www.w3.org/2000/svg" xmlns:xlink="http://www.w3.org/1999/xlink" x="0px" y="0px"
	 width="231px" height="39.341px" viewBox="0 0 231 39.341" enable-background="new 0 0 231 39.341" xml:space="preserve">
<g>
	<path fill="#666766" d="M137.442,24.432v-1.37h9.339v1.37h-3.913v10.944h-1.532V24.432H137.442z"/>
	<path fill="#666766" d="M148.81,35.375V23.062h4.95c1.142,0,2.073,0.338,2.794,1.014c0.721,0.677,1.082,1.577,1.082,2.7
		c0,0.539-0.089,1.032-0.266,1.479s-0.417,0.818-0.716,1.111c-0.301,0.293-0.642,0.526-1.023,0.699
		c-0.382,0.173-0.786,0.277-1.213,0.314l3.326,4.997h-1.812l-3.119-4.868h-2.47v4.868H148.81z M150.343,29.138h3.227
		c0.727,0,1.322-0.22,1.785-0.659c0.463-0.438,0.694-1.006,0.694-1.704c0-0.697-0.229-1.262-0.689-1.695
		c-0.46-0.432-1.057-0.649-1.79-0.649h-3.227V29.138z"/>
	<path fill="#666766" d="M158.771,35.375l4.967-12.314h1.902l4.949,12.314h-1.749l-1.091-2.731h-6.13l-1.09,2.731H158.771z
		 M162.08,31.274h5.228l-2.623-6.644L162.08,31.274z"/>
	<path fill="#666766" d="M172.194,35.375V23.062h1.533v12.314H172.194z"/>
	<path fill="#666766" d="M176.603,35.375V23.062h1.568l7.086,9.619v-9.619h1.532v12.314h-1.478l-7.176-9.826v9.826H176.603z"/>
	<path fill="#666766" d="M189.665,35.375V23.062h1.532v12.314H189.665z"/>
	<path fill="#666766" d="M194.073,35.375V23.062h1.568l7.086,9.619v-9.619h1.532v12.314h-1.479l-7.175-9.826v9.826H194.073z"/>
	<path fill="#666766" d="M207.131,31.838c-0.333-0.802-0.5-1.673-0.5-2.614s0.167-1.811,0.5-2.612s0.784-1.475,1.352-2.021
		c0.567-0.546,1.238-0.972,2.014-1.278c0.774-0.306,1.597-0.459,2.469-0.459c1.959,0,3.562,0.763,4.808,2.288l-1.24,0.774
		c-0.397-0.516-0.911-0.927-1.54-1.233c-0.63-0.306-1.306-0.459-2.028-0.459c-1.359,0-2.491,0.467-3.394,1.4
		c-0.903,0.933-1.354,2.131-1.354,3.596c0,0.96,0.208,1.826,0.623,2.596c0.415,0.771,0.983,1.369,1.706,1.794
		s1.528,0.639,2.419,0.639c0.68,0,1.314-0.131,1.904-0.395c0.589-0.262,1.065-0.575,1.426-0.937v-2.509h-4.218v-1.37h5.751v4.45
		c-0.599,0.663-1.314,1.184-2.146,1.563c-0.831,0.378-1.737,0.568-2.717,0.568c-0.872,0-1.694-0.154-2.469-0.464
		c-0.775-0.31-1.446-0.739-2.014-1.289C207.915,33.316,207.464,32.64,207.131,31.838z"/>
	<path fill="#666766" d="M219.558,33.635l0.92-1.183c0.445,0.517,0.996,0.943,1.654,1.277c0.658,0.334,1.393,0.501,2.204,0.501
		c0.522,0,0.981-0.066,1.375-0.198c0.393-0.132,0.697-0.307,0.91-0.524c0.213-0.216,0.37-0.443,0.469-0.682
		c0.099-0.238,0.148-0.486,0.148-0.745c0-0.337-0.083-0.633-0.247-0.89c-0.165-0.255-0.389-0.463-0.671-0.623
		c-0.282-0.16-0.607-0.294-0.977-0.402c-0.37-0.108-0.755-0.221-1.157-0.338c-0.401-0.117-0.803-0.235-1.205-0.353
		c-0.401-0.118-0.784-0.264-1.147-0.439c-0.364-0.175-0.687-0.378-0.969-0.611s-0.506-0.531-0.672-0.897
		c-0.165-0.365-0.248-0.784-0.248-1.255c0-1.005,0.401-1.826,1.204-2.464c0.802-0.637,1.817-0.956,3.043-0.956
		c1.802,0,3.254,0.575,4.354,1.723l-0.919,1.128c-0.871-0.987-2.059-1.481-3.561-1.481c-0.733,0-1.339,0.184-1.816,0.552
		c-0.478,0.367-0.717,0.843-0.717,1.427c0,0.298,0.082,0.56,0.246,0.784c0.165,0.225,0.388,0.409,0.668,0.551
		c0.282,0.143,0.605,0.268,0.973,0.375c0.367,0.107,0.752,0.22,1.157,0.338c0.404,0.119,0.808,0.237,1.208,0.354
		c0.401,0.118,0.784,0.271,1.148,0.459c0.364,0.188,0.688,0.406,0.971,0.654c0.283,0.248,0.507,0.563,0.673,0.945
		c0.166,0.383,0.248,0.819,0.248,1.309c0,0.469-0.084,0.911-0.252,1.327c-0.168,0.415-0.423,0.799-0.766,1.15
		c-0.343,0.352-0.816,0.632-1.42,0.839c-0.604,0.208-1.306,0.311-2.105,0.311c-1.015,0-1.921-0.175-2.717-0.527
		S220.099,34.242,219.558,33.635z"/>
</g>
<g>
	<g>
		<path fill="#1596C9" d="M103.032,6.99l5.505,4.246l-0.018,5.812l4.472-2.945l4.302,3.037L126.953,2L103.032,6.99z M111.126,12.645
			l-1.568,2.645l0.006-4.443l14.367-6.916L111.126,12.645z"/>
		<path fill="#1596C9" d="M2.644,22.977h2.471v12.412H2.644V22.977z"/>
		<path fill="#1596C9" d="M7.605,35.389V22.985h0.828l7.771,7.77v-7.77h2.479v12.403h-0.908l-7.691-7.691v7.691H7.605z"/>
		<path fill="#1596C9" d="M31.378,22.985V25.3h-4.135v10.088h-2.48V25.3H20.63v-2.315H31.378z"/>
		<path fill="#1596C9" d="M33.189,35.389V22.992l9.115-0.007V25.3h-6.633v2.645h4.973v2.309h-4.973v2.818h6.615v2.316H33.189z"/>
		<path fill="#1596C9" d="M52.269,29.979l3.09,5.41h-2.842l-2.973-5.126h-2.264v5.126H44.8V22.985h5.408
			c2.895,0,4.34,1.188,4.34,3.569C54.548,28.348,53.789,29.488,52.269,29.979z M47.281,27.945h3.475
			c0.996-0.018,1.512-0.471,1.535-1.362c-0.023-0.819-0.529-1.241-1.512-1.276h-3.498V27.945z"/>
		<path fill="#1596C9" d="M56.652,35.389V22.985h0.824l7.775,7.77v-7.77h2.48v12.403H66.82l-7.689-7.691v7.691H56.652z"/>
	</g>
	<g>
		<path fill-rule="evenodd" clip-rule="evenodd" fill="#666766" d="M89.718,21.481c5.937-0.863,11.538-2.915,17.319-4.834
			C105.249,18.083,91.876,21.838,89.718,21.481z"/>
		<polygon fill-rule="evenodd" clip-rule="evenodd" fill="#666766" points="112.991,14.104 108.519,17.048 111.126,12.645 		"/>
		<path fill="#666766" d="M77.019,23.398c0.631,0.275,1.225,0.688,1.775,1.238l-1.65,1.656c-0.553-0.664-1.324-0.993-2.32-0.993
			c-0.99,0-1.625,0.235-1.9,0.702c-0.275,0.469-0.275,0.869,0,1.2c0.275,0.333,0.91,0.58,1.9,0.744
			c1.051,0.111,2.002,0.456,2.854,1.037c0.855,0.576,1.281,1.5,1.281,2.769c0,0.991-0.455,1.847-1.365,2.563
			c-0.914,0.715-1.977,1.074-3.189,1.074c-1.152,0-2.113-0.166-2.885-0.496c-0.771-0.332-1.434-0.771-1.984-1.324l1.652-1.654
			c0.553,0.664,1.49,1.049,2.811,1.158c1.105,0,1.789-0.233,2.064-0.701c0.273-0.469,0.273-0.938,0-1.408
			c-0.275-0.467-0.959-0.758-2.064-0.867c-0.992-0.11-1.9-0.415-2.727-0.911c-0.828-0.496-1.24-1.351-1.24-2.563
			c0-1.098,0.469-1.979,1.409-2.642c0.942-0.664,1.903-0.996,2.899-0.996C75.492,22.985,76.382,23.123,77.019,23.398z"/>
		<path fill="#666766" d="M81.177,35.389V22.985h2.482v4.96h5.778v-4.969h2.485v12.403l-2.485,0.009v-5.126H83.66v5.126H81.177z"/>
		<path fill="#666766" d="M93.947,35.389l4.959-12.403h2.482l4.953,12.394l-2.637,0.009l-0.747-1.9h-5.622l-0.744,1.9H93.947z
			 M100.213,26.293l-1.886,4.712h3.722L100.213,26.293z"/>
		<path fill="#666766" d="M110.7,22.985v10.087h6.616v2.316h-9.098V22.985H110.7z"/>
		<path fill="#666766" d="M118.703,35.389l4.964-12.403h2.48l4.952,12.394l-2.636,0.009l-0.745-1.9h-5.622l-0.743,1.9H118.703z
			 M124.974,26.293l-1.886,4.712h3.722L124.974,26.293z"/>
	</g>
</g>
</svg>
