<?xml version="1.0" encoding="UTF-8" standalone="no"?>
<!-- Generator: Adobe Illustrator 16.0.0, SVG Export Plug-In . SVG Version: 6.00 Build 0)  -->
<!DOCTYPE svg  PUBLIC '-//W3C//DTD SVG 1.1//EN'  'http://www.w3.org/Graphics/SVG/1.1/DTD/svg11.dtd'>
<svg id="Layer_1" xmlns="http://www.w3.org/2000/svg" xml:space="preserve" height="20px" viewBox="0 0 20 20" width="20px" version="1.1" y="0px" x="0px" xmlns:xlink="http://www.w3.org/1999/xlink" enable-background="new 0 0 20 20">
		<path stroke="#333" stroke-miterlimit="10" d="m7.396 14.969l-2.61 1.425c-0.153 0.084-0.291 0.186-0.419 0.298 1.522 1.283 3.487 2.057 5.634 2.057 2.131 0 4.083-0.763 5.601-2.028-0.14-0.118-0.292-0.224-0.46-0.308l-2.796-1.397c-0.361-0.181-0.589-0.55-0.589-0.954v-1.097c0.078-0.088 0.168-0.205 0.265-0.34 0.381-0.538 0.669-1.13 0.868-1.75 0.359-0.11 0.623-0.442 0.623-0.836v-1.17c0-0.257-0.114-0.488-0.292-0.648v-1.694s0.348-2.634-3.219-2.634c-3.566 0-3.219 2.634-3.219 2.634v1.692c-0.178 0.16-0.293 0.392-0.293 0.648v1.17c0 0.308 0.163 0.58 0.405 0.736 0.292 1.274 1.059 2.19 1.059 2.19v1.069c-0.002 0.392-0.215 0.751-0.558 0.937z" fill="none"/>
			<path stroke="#333" stroke-miterlimit="10" d="m10.15 1.252c-4.831-0.083-8.815 3.767-8.898 8.599-0.047 2.739 1.174 5.201 3.118 6.839 0.127-0.112 0.264-0.213 0.415-0.295l2.61-1.424c0.343-0.187 0.556-0.546 0.556-0.937v-1.07s-0.766-0.917-1.059-2.189c-0.242-0.157-0.404-0.428-0.404-0.737v-1.17c0-0.258 0.114-0.488 0.292-0.65v-1.691s-0.347-2.634 3.219-2.634c3.567 0 3.219 2.634 3.219 2.634v1.691c0.178 0.162 0.292 0.392 0.292 0.65v1.17c0 0.394-0.264 0.725-0.623 0.835-0.2 0.622-0.488 1.214-0.869 1.751-0.096 0.136-0.186 0.251-0.265 0.34v1.098c0 0.403 0.228 0.773 0.589 0.953l2.796 1.397c0.168 0.084 0.319 0.19 0.459 0.308 1.885-1.571 3.103-3.923 3.148-6.57 0.086-4.831-3.764-8.815-8.595-8.898z" fill="none"/>
</svg>
