<?xml version="1.0" encoding="utf-8"?>
<!-- Generator: Adobe Illustrator 16.0.0, SVG Export Plug-In . SVG Version: 6.00 Build 0)  -->
<!DOCTYPE svg PUBLIC "-//W3C//DTD SVG 1.1//EN" "http://www.w3.org/Graphics/SVG/1.1/DTD/svg11.dtd">
<svg version="1.1" id="Layer_1" xmlns="http://www.w3.org/2000/svg" xmlns:xlink="http://www.w3.org/1999/xlink" x="0px" y="0px"
	 width="20px" height="20px" viewBox="0 0 20 20" enable-background="new 0 0 20 20" xml:space="preserve">
<g>
	<path fill="#333333" stroke="#333333" stroke-width="0.4" stroke-miterlimit="10" d="M13.737,6.497h-1.778
		c-0.118-1.13-0.617-1.946-1.262-2.444h3.04C13.882,4.053,14,3.929,14,3.777C14,3.624,13.882,3.5,13.737,3.5H6.263
		C6.119,3.5,6,3.624,6,3.777c0,0.152,0.119,0.276,0.263,0.276H9.44c0.849,0.165,1.815,0.908,1.994,2.444H6.263
		C6.119,6.497,6,6.621,6,6.773C6,6.926,6.119,7.05,6.263,7.05h5.205c-0.011,0.769-0.26,1.393-0.75,1.853
		c-1.389,1.3-4.226,0.968-4.254,0.966c-0.105-0.011-0.212,0.044-0.263,0.145c-0.051,0.101-0.038,0.225,0.033,0.311l4.988,6.08
		c0.052,0.063,0.126,0.096,0.198,0.096c0.061,0,0.123-0.022,0.172-0.067c0.11-0.1,0.123-0.274,0.027-0.391L7.042,10.46
		c0.987,0.028,2.881-0.072,4.025-1.143c0.607-0.569,0.917-1.333,0.928-2.268h1.743C13.882,7.05,14,6.926,14,6.773
		C14,6.621,13.882,6.497,13.737,6.497z"/>
</g>
</svg>
